PathFileType	4	(X/Y/Z)	G:\Shared drives\HPL_Drive\Pi-Spi Study\20230118_AMCsubject1\Trimmed_right_flex_18001_rotated.trc
DataRate	CameraRate	NumFrames	NumMarkers	Units	OrigDataRate	OrigDataStartFrame	OrigNumFrames
200.00	200.00	       10	35	mm	200.00	126	       200
Frame#	Time	C7			Sternum			r_AMC1			r_AMC2			r_AMC3			l_AMC1			l_AMC2			l_AMC3			PX			T8			r_humerous			r_elbow_medial			r_elbow_lateral			r_forearm			r_wrist_radius			r_wrist_ulna			r_MCP_1			r_MCP_3			l_humerous			l_elbow_medial			l_elbow_lateral			l_forearm			l_wrist_radius			l_wrist_ulna			l_MCP_1			l_MCP_3			r_ASIS			r_PSIS			l_ASIS			l_PSIS			r_IC			l_IC			TS			AI			AA			
		X1	Y1	Z1	X2	Y2	Z2	X3	Y3	Z3	X4	Y4	Z4	X5	Y5	Z5	X6	Y6	Z6	X7	Y7	Z7	X8	Y8	Z8	X9	Y9	Z9	X10	Y10	Z10	X11	Y11	Z11	X12	Y12	Z12	X13	Y13	Z13	X14	Y14	Z14	X15	Y15	Z15	X16	Y16	Z16	X17	Y17	Z17	X18	Y18	Z18	X19	Y19	Z19	X20	Y20	Z20	X21	Y21	Z21	X22	Y22	Z22	X23	Y23	Z23	X24	Y24	Z24	X25	Y25	Z25	X26	Y26	Z26	X27	Y27	Z27	X28	Y28	Z28	X29	Y29	Z29	X30	Y30	Z30	X31	Y31	Z31	X32	Y32	Z32	X33	Y33	Z33	X34	Y34	Z34	X35	Y35	Z35	

126	0.625	181.9449	1371.9211	-232.3092	320.1432	1322.9067	-228.5244	167.4409	1337.3612	-93.8874	200.071	1372.2488	-78.6077	194.7694	1393.4341	-117.8949	195.1592	1315.0811	-387.274	230.5766	1309.5361	-424.6925	253.1616	1350.2405	-399.22	388.1822	1132.297	-216.679	153.613	1188.7726	-226.6524	273.3145	1474.1924	-74.7499	377.6539	1561.051	-7.1509	321.1696	1577.0908	13.6991	346.4671	1741.1272	32.5753	345.9099	1815.4603	18.0423	390.8828	1802.8303	38.8394	354.66	1900.7161	23.0848	400.5178	1891.671	36.5719	318.0122	1121.7051	-424.3054	266.6254	988.0061	-377.5167	261.4049	982.6195	-431.0845	308.4736	837.4976	-469.2085	358.0195	770.2992	-477.3458	316.7817	762.3801	-461.4104	367.8603	692.7791	-492.4957	326.7273	686.3598	-469.6376	350.2158	910.2997	-73.8244	164.8608	930.2195	-161.2868	358.8898	891.8946	-330.7594	169.851	923.0724	-262.9616	269.1998	972.0098	-47.9969	273.4452	939.3184	-371.5501	106.6772	1285.1362	-124.5287	142.6974	1208.0933	-67.6894	158.3156	1373.3702	-21.9343
127	0.63	181.9416	1371.9443	-232.2725	320.1379	1322.8806	-228.4757	167.4884	1337.3473	-93.8426	200.1206	1372.2571	-78.5999	194.821	1393.426	-117.8607	195.1943	1315.1066	-387.2786	230.5772	1309.5709	-424.6805	253.173	1350.2755	-399.2003	388.2208	1132.3102	-216.6368	153.6299	1188.7815	-226.6407	273.3485	1474.1539	-74.6957	378.3162	1561.1736	-6.5414	321.2312	1577.0627	13.7233	346.634	1741.1433	32.6339	346.0129	1815.4298	18.1126	390.9934	1802.7404	38.9149	354.7342	1900.5689	23.2214	400.5997	1891.6385	36.6674	318.0002	1121.7957	-424.3372	266.6678	988.0369	-377.5512	261.7037	983.5153	-431.1401	308.5252	837.5333	-469.2683	358.0339	770.3738	-477.3936	316.8155	762.4221	-461.4913	367.8572	692.6836	-491.9077	326.7635	686.4013	-469.69	350.2467	910.304	-73.7853	164.8595	930.2172	-161.2771	358.9209	891.9094	-330.7913	169.8484	923.0698	-262.9557	269.2292	971.9821	-48.0256	273.4663	939.2751	-371.5025	106.6851	1285.1515	-124.5174	142.7326	1208.0713	-67.7354	158.3546	1373.4497	-21.9316
128	0.635	181.9754	1371.9548	-232.2581	320.22	1322.9242	-228.4625	167.4773	1337.3698	-93.9156	200.1301	1372.2575	-78.5672	194.8371	1393.4329	-117.8325	195.2153	1315.1219	-387.2349	230.609	1309.5952	-424.6533	253.2037	1350.3142	-399.1866	388.2261	1132.3259	-216.6738	153.6701	1188.7886	-226.6404	273.4156	1474.1465	-74.6556	378.3888	1561.1261	-6.471	321.255	1577.0311	13.7806	346.719	1741.1561	32.7045	346.0891	1815.3877	18.1964	391.1155	1802.7283	39.0126	354.8554	1900.5112	23.3434	400.6882	1891.5671	36.7697	318.0381	1121.7787	-424.3232	266.6806	988.0725	-377.5895	261.4385	982.6769	-431.1236	308.5721	837.565	-469.3004	358.061	770.3972	-477.469	316.8442	762.4666	-461.5507	367.8997	692.7362	-491.9906	326.8198	686.4371	-469.7641	350.2659	910.3472	-73.8316	164.8722	930.2123	-161.2678	358.8925	891.9039	-330.7859	169.8331	923.0731	-262.9507	269.2789	971.9882	-48.0375	273.3956	939.3837	-371.5627	106.7259	1285.1691	-124.4936	142.7782	1208.1202	-67.7124	158.357	1373.4672	-21.9075
129	0.64	182.0098	1371.9597	-232.2309	320.2172	1322.9412	-228.44	167.5145	1337.4141	-93.8076	200.1682	1372.2467	-78.5511	194.8983	1393.4272	-117.8096	195.2388	1315.1514	-387.2318	230.5996	1309.6226	-424.6441	253.1978	1350.3339	-399.1606	388.22	1132.3113	-216.6417	153.6923	1188.7967	-226.6411	273.4805	1474.1284	-74.6152	378.4567	1561.1006	-6.4267	321.3212	1576.9895	13.8334	346.7748	1741.1072	32.7906	346.1805	1815.3527	18.2705	391.2111	1802.6875	39.105	354.9526	1900.5064	23.4981	400.7604	1891.5923	36.8833	318.0315	1121.873	-424.3285	266.7083	988.0833	-377.6043	261.4824	982.8058	-431.1607	308.58	837.6114	-469.3472	358.071	770.5002	-477.5007	316.9031	762.4766	-461.6142	367.9488	692.7802	-492.0616	326.8798	686.503	-469.8268	350.3021	910.3209	-73.8463	164.8682	930.2189	-161.2773	358.9257	891.9269	-330.815	169.8585	923.0674	-262.9365	269.273	971.9638	-48.0316	273.3702	939.3988	-371.5376	106.741	1285.1677	-124.4743	142.7528	1208.1766	-67.5705	158.3842	1373.5156	-21.9506
130	0.645	182.0326	1371.9584	-232.2023	320.2528	1322.9462	-228.4175	167.5545	1337.4049	-93.8346	200.2033	1372.2422	-78.5238	194.9181	1393.4354	-117.7705	195.2853	1315.1747	-387.2037	230.6126	1309.6431	-424.6261	253.2433	1350.3843	-399.1426	388.2635	1132.3317	-216.5953	153.6862	1188.8218	-226.6228	273.5514	1474.1118	-74.5957	378.466	1561.0759	-6.3652	321.3677	1576.9656	13.8932	346.8966	1741.0377	32.8416	346.2682	1815.322	18.3857	391.3131	1802.6421	39.1951	355.0465	1900.428	23.5936	400.8684	1891.5289	37.0309	318.0398	1121.8928	-424.3606	266.7243	988.095	-377.6341	261.4813	982.7085	-431.1838	308.63	837.6744	-469.3998	358.1156	770.4913	-477.5624	316.9264	762.5364	-461.6802	367.9246	693.0558	-492.7422	326.9168	686.5222	-469.8881	350.248	910.3039	-73.8024	164.8946	930.2083	-161.2775	358.9093	891.9217	-330.8201	169.8305	923.0862	-262.9626	269.2576	972.0056	-48.0199	273.3383	939.4069	-371.5436	106.7666	1285.1948	-124.4697	142.7775	1208.171	-67.5908	158.391	1373.5282	-21.9361
131	0.65	182.0506	1371.9788	-232.1808	320.2791	1322.9542	-228.3925	167.5711	1337.4084	-93.8214	200.2472	1372.2279	-78.5129	194.9536	1393.4382	-117.7498	195.2732	1315.1881	-387.1811	230.6315	1309.6681	-424.6056	253.2699	1350.3997	-399.122	388.2796	1132.3385	-216.6095	153.7022	1188.8367	-226.6266	273.5609	1474.1023	-74.5536	378.537	1561.0573	-6.3056	321.4223	1576.9509	13.9247	346.9824	1741.043	32.9359	346.3657	1815.2826	18.4491	391.4131	1802.6497	39.2782	355.1307	1900.5033	23.7236	401.0062	1891.4924	37.1181	318.0359	1121.9586	-424.4192	266.7451	988.0967	-377.6469	261.5129	982.7292	-431.1829	308.6513	837.7202	-469.4553	358.161	770.5774	-477.6225	316.9711	762.5505	-461.7508	368.2289	693.0466	-492.9449	326.9387	686.5707	-469.9583	350.3241	910.3415	-73.829	164.8993	930.2236	-161.2438	358.9158	891.935	-330.8426	169.8536	923.0649	-262.9567	269.2266	972.0485	-48.0622	273.3944	939.3417	-371.4729	106.7901	1285.2019	-124.4469	142.7904	1208.1837	-67.5512	158.4263	1373.609	-21.9675
132	0.655	182.0971	1371.985	-232.1563	320.2814	1322.9741	-228.3707	167.5968	1337.4022	-93.8016	200.2584	1372.2554	-78.466	194.9637	1393.438	-117.7131	195.324	1315.2057	-387.1562	230.6809	1309.6888	-424.5933	253.2984	1350.4147	-399.1038	388.2628	1132.3678	-216.6487	153.7503	1188.8463	-226.608	273.6287	1474.0996	-74.5216	378.5818	1561.0405	-6.2535	321.4457	1576.9243	13.9713	347.0524	1740.9965	33.0156	346.4438	1815.2402	18.5164	391.4706	1802.5887	39.3715	355.2773	1900.3662	23.7852	401.1337	1891.4904	37.2329	318.0215	1121.9894	-424.4264	266.7739	988.1141	-377.6639	261.774	983.6128	-431.2158	308.6652	837.7395	-469.4828	358.1558	770.601	-477.6556	317.0041	762.5727	-461.779	368.1344	693.2319	-493.0599	326.9941	686.5973	-470.0217	350.27	910.327	-73.8198	164.9003	930.2133	-161.2552	358.9213	891.9586	-330.8319	169.8442	923.066	-262.9478	269.2567	972.0171	-48.0225	273.3641	939.3242	-371.5064	106.7922	1285.2135	-124.4044	142.805	1208.2101	-67.4805	158.4748	1373.6454	-21.9165
133	0.66	182.1254	1371.9839	-232.1375	320.3148	1322.9941	-228.339	167.667	1337.394	-93.7226	200.3312	1372.2173	-78.4775	195.036	1393.4346	-117.6858	195.3346	1315.2681	-387.1394	230.7109	1309.7252	-424.5844	253.3366	1350.4517	-399.0779	388.337	1132.3403	-216.5916	153.7481	1188.8304	-226.5944	273.6562	1474.0948	-74.4958	378.64	1560.9741	-6.2109	321.5127	1576.8914	14.023	347.1228	1740.9972	33.1013	346.543	1815.2047	18.6398	391.5686	1802.5964	39.4578	355.3716	1900.454	23.917	401.2182	1891.4646	37.352	318.0327	1122.0034	-424.4317	266.8006	988.1428	-377.6682	261.5348	982.778	-431.2352	308.6856	837.8007	-469.5357	358.1799	770.6282	-477.7218	317.0195	762.6041	-461.8229	368.1519	693.2028	-493.0354	327.041	686.618	-470.0741	350.3272	910.3576	-73.8272	164.9153	930.2045	-161.2741	358.9232	891.9567	-330.8484	169.862	923.0615	-262.955	269.1742	972.1018	-48.0632	273.3302	939.4232	-371.5214	106.8073	1285.2236	-124.3852	142.828	1208.2393	-67.4632	158.5201	1373.6609	-21.9462
134	0.665	182.1632	1372.006	-232.123	320.3405	1322.9829	-228.2999	167.6817	1337.4062	-93.7138	200.3653	1372.2175	-78.4362	195.066	1393.4571	-117.6186	195.3901	1315.2891	-387.1357	230.7473	1309.7606	-424.5463	253.3919	1350.4753	-399.0491	388.324	1132.3732	-216.6036	153.7817	1188.8538	-226.5826	273.6958	1474.0823	-74.4598	378.6606	1561.0416	-6.1565	321.5606	1576.8621	14.0706	347.1953	1740.9556	33.1857	346.6295	1815.1728	18.7715	391.6296	1802.5435	39.5592	355.4693	1900.396	24.0271	401.318	1891.4924	37.4811	318.0369	1122.0429	-424.4425	266.8261	988.1497	-377.6752	261.5505	982.8085	-431.2444	308.7005	837.8305	-469.5879	358.1885	770.7017	-477.8006	317.065	762.6172	-461.8634	368.1672	693.0925	-492.6383	327.0454	686.6547	-470.1317	350.3149	910.347	-73.8355	164.9005	930.2191	-161.2572	358.9432	891.9735	-330.8536	169.8491	923.0821	-262.9688	269.2511	972.0875	-48.0411	273.2425	939.4966	-371.5174	106.8144	1285.2355	-124.3437	142.8138	1207.9613	-67.6871	158.5514	1373.7255	-21.9032
135	0.67	182.1571	1372.0126	-232.0888	320.3883	1322.9918	-228.3001	167.6962	1337.4043	-93.7608	200.3936	1372.2218	-78.3917	195.0972	1393.4861	-117.5718	195.4278	1315.3002	-387.1118	230.7743	1309.7744	-424.5376	253.4179	1350.4905	-399.0366	388.3478	1132.3517	-216.5538	153.7881	1188.8722	-226.57	273.7369	1474.0751	-74.422	378.7429	1560.9697	-6.142	321.615	1576.8547	14.1455	347.2602	1740.9341	33.318	346.7215	1815.1446	18.8712	391.7587	1802.4973	39.6278	355.6213	1900.3273	24.13	401.3919	1891.402	37.5891	318.0639	1122.0496	-424.5127	266.8354	988.1641	-377.7013	261.5578	982.731	-431.2623	308.7172	837.8552	-469.632	358.1874	770.7593	-477.8511	317.0879	762.67	-461.9057	368.0569	693.4192	-493.2715	327.0867	686.675	-470.1913	350.2831	910.3642	-73.8155	164.9185	930.2175	-161.2733	358.9452	891.9627	-330.8825	169.8452	923.0788	-262.978	269.2278	972.0527	-48.0833	273.3084	939.481	-371.5817	106.8663	1285.2507	-124.302	142.9092	1208.2936	-67.4309	158.6187	1373.735	-21.929
